HIERARCHY
ROOT Spine
{
    OFFSET 0.0 0.0 -0.0
    CHANNELS 6 Xposition Yposition Zposition Zrotation Xrotation Yrotation
    JOINT ShoulderCenter
    {
        OFFSET 0.0 31.689437866210938 0.0
        CHANNELS 3 Zrotation Xrotation Yrotation
        JOINT LeftShoulder
        {
            OFFSET 16.907520294189453 0.0 0.0
            CHANNELS 3 Zrotation Xrotation Yrotation
            JOINT LeftElbow
            {
                OFFSET 30.428173065185547 0.0 0.0
                CHANNELS 3 Zrotation Xrotation Yrotation
                JOINT LeftHand
                {
                    OFFSET 28.205726623535156 0.0 0.0
                    CHANNELS 3 Zrotation Xrotation Yrotation
                    End Site
                    {
                        OFFSET 11.282289505004883 0.0 0.0
                    }
                }
            }
        }
        JOINT RightShoulder
        {
            OFFSET -16.907520294189453 0.0 0.0
            CHANNELS 3 Zrotation Xrotation Yrotation
            JOINT RightElbow
            {
                OFFSET -30.428173065185547 0.0 0.0
                CHANNELS 3 Zrotation Xrotation Yrotation
                JOINT RightHand
                {
                    OFFSET -28.205726623535156 0.0 0.0
                    CHANNELS 3 Zrotation Xrotation Yrotation
                    End Site
                    {
                        OFFSET -11.282289505004883 0.0 0.0
                    }
                }
            }
        }
        End Site
        {
            OFFSET 0.0 12.675775527954102 0.0
        }
    }
    JOINT LeftHip
    {
        OFFSET 18.165526381847833 -18.165526381847833 0.0
        CHANNELS 3 Zrotation Xrotation Yrotation
        JOINT LeftKnee
        {
            OFFSET 0.0 -34.99939727783203 0.0
            CHANNELS 3 Zrotation Xrotation Yrotation
            JOINT LeftFoot
            {
                OFFSET 0.0 -45.112571716308594 0.0
                CHANNELS 3 Zrotation Xrotation Yrotation
                End Site
                {
                    OFFSET 0.0 0.0 18.045028686523438
                }
            }
        }
    }
    JOINT RightHip
    {
        OFFSET -18.165526381847833 -18.165526381847833 0.0
        CHANNELS 3 Zrotation Xrotation Yrotation
        JOINT RightKnee
        {
            OFFSET 0.0 -34.99939727783203 0.0
            CHANNELS 3 Zrotation Xrotation Yrotation
            JOINT RightFoot
            {
                OFFSET 0.0 -45.112571716308594 0.0
                CHANNELS 3 Zrotation Xrotation Yrotation
                End Site
                {
                    OFFSET 0.0 0.0 18.045028686523438
                }
            }
        }
    }
}
MOTION
Frames: 9
Frame Time: 0.03333333333333333
35.10000228881836 0.6000000238418579 150.0 -3.6100838669124893 -1.4427815429213247 -94.27441035517023 2.063594785669172e-08 9.784492376864093e-08 4.523230498549526 96.89719167276294 -23.491894138927073 173.37301994362488 -8.390316800860947e-07 1.0085985750029966e-06 32.35670305274088 0.0 0.0 -3.180554681463516e-15 -98.29858998195735 -11.898547062184631 -174.72661766473416 2.2173353791306343e-07 2.9036349024786573e-06 -26.725813511963096 0.0 0.0 6.361109362927032e-15 2.9657660808762785 6.688616899697025 -33.35094793275708 7.905256235275404 -11.548988215952345 26.07127350403186 3.975693351829397e-16 3.975693351829397e-16 -8.59743687333107e-15 -1.4498559805699847 -2.1031470635661407 15.700878431750418 -7.842439138502372 9.455847065060784 19.31348187000863 0.0 0.0 7.007159532599309e-15
35.0 0.6000000238418579 150.1999969482422 -3.802036979293546 -1.6278008207951982 -94.48691883013166 2.3830867684539744e-07 -1.1436360028912076e-07 4.371494969443508 96.69451035391772 -23.741944141896642 173.49008591148356 -3.2673074193229567e-06 4.6329344584919055e-06 32.10349418368093 0.0 0.0 -3.1805546814635168e-15 -98.46245966039596 -12.193352135707029 -174.58757170270763 -4.3665684598863885e-06 4.194150641343626e-06 -26.901726130793442 9.541664044390553e-15 3.1805546814635176e-15 -3.1805546814635176e-15 2.575984222715766 7.041267229055292 -33.556265275929434 8.047108215737197 -11.519273951066793 25.780546660266886 3.975693351829395e-16 -7.95138670365879e-16 7.95138670365879e-16 -1.6415459432911041 -1.93161532647343 15.913100221990996 -8.094496385954121 9.636789092201935 19.861231823676718 -3.975693351829396e-16 -5.172546443027529e-33 1.4908850069360234e-15
35.0 0.6000000238418579 150.39999389648438 -3.802037944923463 -1.808566111467008 -94.73576633392997 -4.8559801167583085e-08 4.4680440190737524e-07 4.2499848375689915 96.83267949628545 -24.24614649257052 173.60639915129465 -3.826369485920966e-06 -4.8523992586493285e-08 32.32528600465888 0.0 0.0 -3.1805546814635164e-15 -98.59131502522578 -11.874424189980992 -174.84774705991487 4.960704372551707e-06 3.00688458294792e-06 -26.639470462181958 2.648343778830095e-31 3.1805546814635176e-15 -9.541664044390553e-15 2.1707279868661935 7.182301279152106 -33.94004441453339 8.245473111017047 -11.423929877145246 25.155628006241365 1.987846675914698e-15 -3.975693351829396e-16 -2.4848083448933726e-15 -1.9725640250552179 -1.9668068614602263 16.571596099933224 -7.969953014578045 9.812891745435692 20.30430530391941 0.0 0.0 -5.963540027744094e-16
34.900001525878906 0.5 150.60000610351562 -3.9699919219959905 -1.982630370738953 -94.95027909368316 3.2565624733150696e-09 -2.513944823981017e-07 4.296820976886796 96.62707685528477 -24.619543021044155 173.57349349353677 3.4768101934860847e-07 5.3812471009126e-06 32.26743369721481 0.0 0.0 3.1805546814635168e-15 -98.77022811907689 -11.442694856046158 -174.72078557288546 6.91657115672758e-07 5.080772080571702e-06 -26.842663380158633 0.0 0.0 3.1805546814635168e-15 1.7752863304357716 7.49630052817106 -34.04772108018585 8.373568043479839 -11.38802861181347 24.715948644284992 0.0 0.0 -3.130858514565649e-15 -2.471494964360735 -1.8493423983407804 16.91805920843036 -7.60644411899493 9.893914457507732 20.30486652477206 -7.951386703658792e-16 1.5902773407317584e-15 1.0436195048552165e-15
34.900001525878906 0.5 150.8000030517578 -3.9825148338227607 -1.988868855654255 -95.3885673765262 -5.294450274893503e-08 -8.867623119486255e-08 4.372425554434322 96.7211532558663 -24.712971859265537 173.4912222537773 5.429472926109559e-06 -4.339754452504688e-06 32.59049454574084 0.0 0.0 0.0 -98.91240266868168 -11.152759499713477 -175.1701618861497 1.6094099455169454e-07 -9.631142379942403e-07 -26.201439900051742 0.0 0.0 3.1805546814635176e-15 1.6952142974980702 7.688269285920205 -34.726827323846365 8.530744616299229 -11.33911371308357 24.557332097449247 0.0 0.0 -6.957463365701443e-16 -2.4646918671620797 -1.8563083840396855 17.26976865785263 -7.748660316398652 9.905607873535407 20.290911728612524 0.0 0.0 6.510197863620636e-15
34.79999923706055 0.5 151.0 -4.162919673548676 -2.1690059709468703 -95.39828348377107 -1.2620174723855668e-07 1.993476572869642e-07 4.2053303493389045 96.66232094398929 -25.697261160759254 173.62217550006721 1.0767319663809862e-06 3.413702529144821e-06 32.60900927762663 0.0 0.0 -3.1805546814635168e-15 -99.10026302601212 -11.341785536087826 -175.2162172910385 -2.782233687529501e-07 1.2477223969655863e-06 -26.188276228070276 0.0 0.0 3.1805546814635168e-15 1.3423457505512533 7.848033449643368 -34.56108127881147 8.428810456451787 -11.247934454229766 24.150675031574888 0.0 0.0 5.963540027744092e-16 -2.8197095821911264 -1.7090114108565426 17.288328962426366 -7.713719590470637 10.035102254972614 20.7461241165925 0.0 0.0 -1.8884543421189626e-15
34.79999923706055 0.5 151.10000610351562 -4.1760888826531755 -2.1758765717073527 -95.63215386655777 -2.4604425672599557e-07 6.817455346101333e-08 4.252719764369241 96.71266931800659 -25.649668197289827 173.78085538840435 1.2411112184101756e-06 9.296324411553684e-07 32.444087988142265 -6.3611093629270335e-15 -3.531125038440127e-31 6.3611093629270335e-15 -99.17912396698858 -11.094851193687743 -175.43702921264446 1.0312576290574755e-06 4.1306914698505845e-07 -26.038060942293143 -3.1805546814635164e-15 -6.361109362927033e-15 -1.7655625192200634e-31 1.2748320521413803 8.021091040640773 -35.093832518211144 8.51856218921327 -11.2353098430305 23.728490566068345 -3.975693351829397e-16 -7.951386703658794e-16 -4.124781852522999e-15 -2.820842164894439 -1.7080709125521731 17.928996954886884 -7.743638033644056 10.240418451302345 21.131437636619733 0.0 0.0 8.448348372637465e-15
34.70000076293945 0.4000000059604645 151.3000030517578 -4.523472270692368 -2.3484522961488152 -95.84175020026706 1.6021495136289164e-07 -1.5503861407014263e-07 4.271031269285299 96.53745749686846 -26.24874317507808 173.54340931533787 -2.7061996502275496e-07 -1.5798385584004367e-06 32.45618868050937 0.0 0.0 -3.1805546814635168e-15 -99.46412425725838 -11.651016498535487 -175.1234169434158 -2.827461419208839e-06 6.123934741889429e-06 -26.24610370512603 0.0 0.0 0.0 0.856394071631448 8.504207903953237 -35.17548499513825 8.74126554851018 -11.303980457698593 23.594880068553813 1.5902773407317584e-15 -7.951386703658792e-16 -6.460501696722769e-16 -3.3557476958629726 -1.2645858051372505 18.52572997431965 -7.39110036566532 10.069510012053776 20.63739226581488 -7.951386703658794e-16 1.5902773407317588e-15 -3.776908684237927e-15
34.70000076293945 0.4000000059604645 151.40000915527344 -4.523471547290021 -2.348452095085769 -96.0767759082887 6.785394615020948e-11 -3.717056784633193e-07 4.337469675108441 96.58529626314363 -26.37672010277619 173.71087271919652 -4.075752383516811e-06 5.847212828918014e-07 32.54370858949391 0.0 0.0 3.1805546814635168e-15 -99.37360118697046 -11.042102494169907 -175.35339229603156 -6.75684288656411e-07 2.5420923012588275e-06 -25.985542297028264 -6.3611093629270335e-15 1.7655625192200634e-31 -3.1805546814635168e-15 0.6356328578597525 8.657907962984837 -35.2422848921863 9.043849293077935 -11.269871085851493 23.47029264207587 -3.975693351829396e-16 3.975693351829396e-16 3.429035515952854e-15 -3.333463165146263 -1.4363942262188631 18.476663863623628 -7.6617099096046966 10.373092909690143 21.585092580927107 1.5776266651233965e-32 -1.9878466759146975e-16 9.094398542309741e-15
